<svg id="icons" enable-background="new 0 0 64 64" height="512" viewBox="0 0 64 64" width="512" xmlns="http://www.w3.org/2000/svg"><path d="m56.97 3.5v2h-46.96-2.98-.02v-2c0-1.109.891-2 2-2h45.96c1.11 0 2 .891 2 2z" fill="#656d78"/><path d="m10.01 5.5v39.99h-1.981l-.999-1v-38.99z" fill="#aab2bd"/><path d="m49.01 33.49-17.01-11.99-11.34 7.99-5.67 4v12h-.07-4.91v-39.99h46.96.02v38.99l-1.001 1h-6.979z" fill="#545c66"/><g fill="#aab2bd"><path d="m10.038 4.5c-.553 0-1.005-.447-1.005-1s.442-1 .994-1h.011c.552 0 1 .447 1 1s-.448 1-1 1z"/><path d="m13.038 4.5c-.553 0-1.005-.447-1.005-1s.442-1 .994-1h.011c.552 0 1 .447 1 1s-.448 1-1 1z"/><path d="m16.038 4.5c-.553 0-1.005-.447-1.005-1s.442-1 .994-1h.011c.552 0 1 .447 1 1s-.448 1-1 1z"/></g><path d="m33.014 10.496h-19.002c-.553 0-1-.447-1-1s.447-1 1-1h19.002c.553 0 1 .447 1 1s-.448 1-1 1z" fill="#a0d468"/><path d="m36.014 14.496h-20.002c-.553 0-1-.447-1-1s.447-1 1-1h20.002c.553 0 1 .447 1 1s-.448 1-1 1z" fill="#ffce54"/><path d="m42.014 14.496h-2c-.553 0-1-.447-1-1s.447-1 1-1h2c.553 0 1 .447 1 1s-.448 1-1 1z" fill="#ffce54"/><path d="m22.012 18.496h-4c-.553 0-1-.447-1-1s.447-1 1-1h4c.553 0 1 .447 1 1s-.448 1-1 1z" fill="#5d9cec"/><path d="m47.014 18.496h-21.002c-.553 0-1-.447-1-1s.447-1 1-1h21.002c.553 0 1 .447 1 1s-.448 1-1 1z" fill="#5d9cec"/><path d="m41.014 22.496h-23.002c-.553 0-1-.447-1-1s.447-1 1-1h23.002c.553 0 1 .447 1 1s-.448 1-1 1z" fill="#ed5565"/><path d="m26.318 26.496h-8.307c-.553 0-1-.447-1-1s.447-1 1-1h8.307c.553 0 1 .447 1 1s-.447 1-1 1z" fill="#a0d468"/><path d="m20.658 30.496h-2.646c-.553 0-1-.447-1-1s.447-1 1-1h2.646c.553 0 1 .447 1 1s-.447 1-1 1z" fill="#5d9cec"/><path d="m49.014 22.496h-4c-.553 0-1-.447-1-1s.447-1 1-1h4c.553 0 1 .447 1 1s-.448 1-1 1z" fill="#ed5565"/><path d="m49.014 26.5h-7.003c-.553 0-1-.447-1-1s.447-1 1-1h7.003c.553 0 1 .447 1 1s-.448 1-1 1z" fill="#a0d468"/><path d="m49.01 44.49v6l-17.01 12.01v-18.01l17.01-12z" fill="#aab2bd"/><path d="m32 44.49v18.01l-17.01-12.01v-6-12z" fill="#e6e9ed"/><path d="m49.01 32.49-17.01 12-17.01-12 5.67-4 11.34-7.99z" fill="#ccd1d9"/><circle cx="8.03" cy="44.49" fill="#aab2bd" r="1"/><circle cx="55.99" cy="44.49" fill="#545c66" r="1"/></svg>