<svg id="Capa_1" enable-background="new 0 0 512 512" height="512" viewBox="0 0 512 512" width="512" xmlns="http://www.w3.org/2000/svg"><g><g><g><g><g><g><g><circle cx="256" cy="256" fill="#1dd882" r="256"/></g></g></g></g></g></g><path d="m512 256c0-15.979-1.464-31.617-4.265-46.785l-83.665-83.665-336.14 268.684 111.492 111.492c18.201 4.107 37.136 6.274 56.578 6.274 141.385 0 256-114.615 256-256z" fill="#06b26b"/><g><g><path d="m424.07 394.234h-336.14v-216.171l145.252-21.337 190.888 21.337z" fill="#fff"/></g><g><path d="m424.07 178.063-168.07-49.378v265.549h168.07z" fill="#e9edf5"/></g><g><path d="m87.93 125.55h336.14v52.513h-336.14z" fill="#4a7aff"/></g><g><path d="m256 125.55h168.07v52.513h-168.07z" fill="#0053bf"/></g><g><circle cx="116.783" cy="151.807" fill="#a3d4ff" r="16.615"/></g><g><circle cx="160.765" cy="151.807" fill="#a3d4ff" r="16.615"/></g></g><g><g><g><path d="m312.451 345.844-21.213-21.214 39.001-39.001-39.001-39.001 21.213-21.213 60.215 60.214z" fill="#333940"/></g><g><path d="m199.549 345.844-60.215-60.215 60.215-60.214 21.213 21.213-39.001 39.001 39.001 39.001z" fill="#555a66"/></g></g><g><path d="m188.945 272.437h130.814v30h-130.814z" fill="#555a66" transform="matrix(.275 -.961 .961 .275 -92.016 452.796)"/></g><g><path d="m257.945 220.428-1.945 6.789v108.934l30.785-107.461z" fill="#333940"/></g></g></g></svg>